<svg xmlns="http://www.w3.org/2000/svg" viewBox="0 0 1440 320">
    <path fill="#0099ff" fill-opacity="1" d="M0,128L24,128C48,128,96,128,144,144C192,160,240,192,288,192C336,192,384,160,432,128C480,96,528,64,576,58.7C624,53,672,75,720,90.7C768,107,816,117,864,112C912,107,960,85,1008,74.7C1056,64,1104,64,1152,74.7C1200,85,1248,107,1296,117.3C1344,128,1392,128,1416,128L1440,128L1440,0L1416,0C1392,0,1344,0,1296,0C1248,0,1200,0,1152,0C1104,0,1056,0,1008,0C960,0,912,0,864,0C816,0,768,0,720,0C672,0,624,0,576,0C528,0,480,0,432,0C384,0,336,0,288,0C240,0,192,0,144,0C96,0,48,0,24,0L0,0Z"></path>
</svg>